<svg width="24" height="24" viewBox="0 0 24 24" fill="none" xmlns="http://www.w3.org/2000/svg">
<path d="M3.42857 0.625C1.5375 0.625 0 2.08242 0 3.875V20.125C0 21.9176 1.5375 23.375 3.42857 23.375H8.68929V15.9711H5.86071V12H8.68929V10.2887C8.68929 5.86563 10.8 3.81406 15.3857 3.81406C16.2536 3.81406 17.7536 3.97656 18.3696 4.13906V7.73438C18.0482 7.70391 17.4857 7.68359 16.7839 7.68359C14.5339 7.68359 13.6661 8.49102 13.6661 10.5883V12H18.1446L17.3732 15.9711H13.6607V23.375H20.5714C22.4625 23.375 24 21.9176 24 20.125V3.875C24 2.08242 22.4625 0.625 20.5714 0.625H3.42857Z" fill="white" fill-opacity="0.46"/>
</svg>
