<?xml version="1.0" standalone="no"?>
<!DOCTYPE svg PUBLIC "-//W3C//DTD SVG 20010904//EN"
 "http://www.w3.org/TR/2001/REC-SVG-20010904/DTD/svg10.dtd">
<svg version="1.0" xmlns="http://www.w3.org/2000/svg"
 width="640.000000pt" height="1280.000000pt" viewBox="0 0 640.000000 1280.000000"
 preserveAspectRatio="xMidYMid meet">
<metadata>
Created by potrace 1.15, written by Peter Selinger 2001-2017
</metadata>
<g transform="translate(0.000000,1280.000000) scale(0.100000,-0.100000)"
fill="#000000" stroke="none">
<path d="M1975 12598 c-264 -805 -471 -1740 -559 -2528 -56 -492 -70 -764 -70
-1300 -1 -603 19 -917 95 -1501 80 -621 151 -980 448 -2259 155 -669 219
-1018 268 -1470 25 -233 25 -904 0 -1130 -53 -467 -158 -969 -298 -1420 -16
-52 -29 -100 -29 -106 0 -13 87 -47 100 -39 4 2 17 39 30 82 12 43 23 79 25
80 1 3 96 -27 102 -31 1 -1 -9 -37 -22 -79 -14 -43 -25 -81 -25 -86 0 -7 140
-54 146 -48 5 5 104 359 104 373 0 8 4 14 10 14 10 0 198 -44 853 -199 163
-39 429 -102 590 -140 160 -39 371 -88 467 -111 96 -23 182 -43 192 -46 14 -4
13 -18 -17 -132 -18 -70 -52 -192 -75 -271 -22 -79 -39 -145 -37 -147 9 -9 97
-31 101 -25 2 3 13 42 24 85 11 43 22 79 24 81 7 8 92 -22 96 -33 2 -6 -6 -44
-17 -85 -12 -40 -21 -78 -21 -83 0 -5 19 -15 43 -21 23 -7 49 -14 58 -18 12
-5 19 6 31 47 263 902 364 1438 430 2288 16 217 17 969 0 1205 -32 447 -85
871 -168 1340 -63 355 -102 538 -329 1540 -213 942 -281 1342 -320 1895 -71
1012 94 2096 512 3374 30 92 51 171 46 176 -7 6 -335 120 -347 120 -2 0 -12
-22 -21 -49 l-16 -49 -1031 344 c-567 189 -1032 345 -1034 347 -2 2 3 25 12
51 9 27 13 51 8 55 -9 8 -101 41 -115 41 -4 0 -10 -11 -13 -24 l-6 -24 -51 16
c-47 15 -50 18 -45 43 5 24 1 29 -35 43 -22 9 -41 16 -44 16 -2 0 -34 -91 -70
-202z m173 -7 l39 -11 -28 -102 c-16 -56 -30 -103 -32 -105 -2 -1 -26 4 -54
12 l-51 15 31 105 c21 73 34 104 43 101 7 -3 30 -10 52 -15z m-93 -313 c33 -9
44 -16 41 -28 -3 -8 -15 -53 -27 -100 -12 -47 -24 -87 -25 -89 -4 -5 -104 20
-104 26 0 21 55 203 61 203 5 0 29 -5 54 -12z m460 -298 c165 -50 415 -127
555 -170 140 -43 464 -142 720 -220 256 -78 466 -143 468 -145 2 -1 -24 -101
-56 -221 -109 -403 -197 -812 -256 -1192 -13 -84 -26 -155 -29 -158 -5 -5
-2108 364 -2116 372 -11 10 56 437 115 739 61 309 153 700 230 979 33 122 32
118 51 112 10 -3 153 -46 318 -96z m-534 -20 l37 -10 -26 -103 c-14 -56 -26
-103 -27 -105 -3 -3 -97 19 -103 23 -3 3 8 49 39 168 11 40 20 44 80 27z
m2617 -140 l39 -12 -29 -92 c-16 -50 -31 -96 -33 -103 -3 -9 -16 -8 -52 4 -26
9 -50 17 -51 19 -2 1 11 48 29 103 21 64 38 100 45 97 7 -3 30 -10 52 -16z
m-2704 -176 c20 -3 38 -9 40 -13 4 -5 -8 -64 -39 -187 -4 -20 -8 -21 -55 -11
-27 5 -50 15 -50 21 0 6 10 55 22 109 15 68 25 96 34 93 7 -3 29 -8 48 -12z
m2643 -148 c3 -2 -54 -197 -59 -201 -7 -8 -98 19 -98 29 0 14 35 142 49 178
l10 27 48 -16 c26 -9 49 -17 50 -17z m-2671 -195 c-3 -9 -12 -54 -21 -101 -10
-47 -19 -88 -21 -91 -3 -6 -94 9 -102 16 -2 2 6 50 18 107 l23 104 53 -10 c42
-7 53 -13 50 -25z m2539 -103 c33 -9 44 -16 40 -28 -2 -8 -14 -54 -26 -102
-23 -96 -24 -96 -92 -77 -29 8 -37 14 -33 27 3 9 15 56 27 105 12 48 25 87 30
87 5 0 29 -5 54 -12z m-2605 -213 c0 -15 -29 -175 -35 -191 -2 -8 -17 -9 -51
-3 -26 5 -49 11 -51 13 -4 4 23 174 32 202 5 16 105 -4 105 -21z m2531 -107
c29 -8 38 -16 34 -27 -2 -9 -13 -54 -24 -100 -11 -46 -22 -85 -24 -87 -10 -10
-106 18 -102 29 2 7 14 54 25 105 24 100 24 101 91 80z m-2590 -204 c3 -2 0
-41 -8 -86 -22 -136 -17 -127 -65 -121 -24 3 -47 9 -52 14 -5 4 -3 43 4 91 18
127 15 121 68 113 26 -4 50 -9 53 -11z m2520 -114 l35 -10 -21 -102 c-13 -62
-26 -103 -33 -102 -7 1 -24 2 -39 3 -53 3 -57 12 -44 83 29 148 29 148 102
128z m-2575 -205 c8 -2 7 -29 -2 -97 -7 -51 -13 -99 -14 -106 0 -11 -12 -12
-52 -7 -29 4 -54 8 -56 10 -2 2 15 144 24 187 5 26 8 28 47 22 23 -3 47 -7 53
-9z m2542 -120 c2 -2 -3 -48 -12 -103 -9 -55 -16 -103 -16 -106 0 -9 -92 3
-102 13 -7 6 15 164 27 199 4 10 17 11 52 6 27 -3 49 -8 51 -9z m-2599 -202
c23 -6 23 -8 16 -87 -10 -124 -11 -126 -55 -126 -67 0 -67 0 -57 103 4 50 10
98 12 105 5 13 45 16 84 5z m2506 -113 c43 -1 45 -9 32 -115 l-13 -100 -48 2
c-26 1 -50 4 -53 7 -3 3 0 53 7 112 12 99 14 105 34 100 12 -3 30 -6 41 -6z
m-2547 -210 l33 0 -7 -102 c-3 -57 -10 -107 -14 -111 -4 -4 -29 -5 -56 -2
l-49 7 7 76 c3 43 7 92 7 111 1 30 4 33 24 27 12 -3 37 -6 55 -6z m1241 -206
l1043 -119 -6 -75 c-24 -295 -16 -865 18 -1215 8 -88 9 -128 1 -130 -5 -2
-271 -17 -590 -35 -319 -17 -798 -44 -1065 -59 -267 -16 -486 -27 -488 -26 -1
1 -9 94 -17 206 -31 409 -30 1205 2 1517 6 62 7 64 32 59 14 -3 496 -58 1070
-123z m1274 89 l39 -6 -7 -61 c-3 -34 -8 -81 -11 -106 l-5 -45 -52 5 c-44 4
-52 8 -50 25 16 221 7 201 86 188z m-2518 -211 c6 -4 9 -49 7 -109 l-3 -103
-55 0 -54 0 0 73 c0 39 3 89 6 110 6 36 8 37 48 37 22 0 46 -4 51 -8z m2525
-176 c0 -35 -3 -84 -6 -110 l-7 -47 -51 3 c-46 3 -51 5 -50 26 0 12 1 60 2
107 l2 85 55 0 55 0 0 -64z m-2530 -256 l0 -110 -55 0 -55 0 0 110 0 110 55 0
55 0 0 -110z m2488 -10 l32 0 0 -105 0 -105 -55 0 -55 0 0 111 c0 111 0 111
23 105 12 -3 37 -6 55 -6z m-2490 -315 l4 -105 -40 0 c-22 0 -47 -3 -56 -6
-14 -5 -16 8 -16 105 l0 111 53 0 52 0 3 -105z m2522 -84 c0 -43 3 -93 6 -110
l7 -31 -55 0 -55 0 -7 38 c-3 20 -6 70 -6 110 l0 72 55 0 55 0 0 -79z m-2520
-210 c0 -43 3 -93 6 -110 l7 -31 -55 0 -55 0 -7 38 c-3 20 -6 70 -6 110 l0 72
55 0 55 0 0 -79z m2534 -83 c3 -24 7 -71 10 -104 l5 -62 -31 -6 c-67 -13 -75
-9 -82 37 -5 36 -9 147 -7 170 1 4 23 7 50 7 l50 0 5 -42z m-2520 -220 c15
-146 14 -156 -8 -162 -12 -3 -35 -6 -53 -6 -29 0 -32 3 -37 38 -5 33 -10 156
-7 175 0 4 23 7 50 7 l50 0 5 -52z m2549 -100 c4 -24 9 -73 13 -110 l6 -68
-41 -1 c-22 -1 -47 -2 -53 -3 -8 -1 -15 21 -20 59 -4 33 -10 81 -13 107 -5 45
-5 47 22 51 77 11 80 10 86 -35z m-2517 -274 c6 -71 6 -107 -1 -109 -5 -2 -29
-6 -51 -9 -49 -7 -49 -8 -59 126 l-7 87 33 4 c82 10 75 18 85 -99z m2554 -10
c0 -4 7 -51 16 -106 9 -55 14 -101 12 -103 -2 -2 -26 -7 -54 -10 l-51 -7 -16
103 c-9 57 -14 106 -11 108 4 4 66 17 92 20 6 0 12 -2 12 -5z m-216 -181 c3
-16 15 -82 26 -148 44 -253 147 -743 276 -1303 9 -42 13 -77 8 -82 -5 -4 -286
-72 -624 -150 -338 -78 -810 -187 -1048 -242 -238 -55 -435 -98 -438 -95 -9 9
-108 444 -184 807 -73 353 -179 984 -167 996 3 4 2059 238 2129 243 10 1 18
-9 22 -26z m-2314 -45 c1 -7 7 -54 14 -105 l13 -91 -30 -6 c-56 -11 -76 -7
-82 17 -11 52 -25 180 -19 188 8 14 104 11 104 -3z m2580 -91 c0 -1 9 -49 20
-106 11 -58 19 -105 17 -106 -1 -1 -26 -7 -54 -12 -38 -7 -53 -7 -53 1 -1 6
-9 55 -19 108 l-18 96 46 10 c57 12 61 13 61 9z m-2537 -239 c3 -13 11 -58 18
-101 13 -87 10 -95 -43 -98 -16 -1 -33 -2 -40 -3 -8 -1 -18 36 -28 106 l-16
107 25 4 c65 10 79 7 84 -15z m2622 -189 c16 -70 19 -102 11 -105 -6 -2 -30
-8 -53 -13 l-42 -9 -15 67 c-8 36 -18 85 -22 107 l-6 41 48 10 c27 5 51 8 53
6 2 -1 14 -48 26 -104z m-2554 -214 c9 -55 14 -103 10 -106 -3 -4 -27 -10 -52
-13 l-46 -7 -17 90 c-23 125 -22 129 17 134 71 9 69 11 88 -98z m2605 -22 c3
-16 14 -62 25 -103 10 -41 16 -77 13 -80 -3 -3 -27 -10 -54 -16 l-47 -11 -22
93 c-11 51 -21 99 -21 107 0 12 40 27 92 36 4 0 10 -11 14 -26z m-2562 -215
c33 -152 37 -181 30 -188 -5 -5 -29 -11 -54 -15 l-46 -7 -20 106 -21 105 41
10 c61 13 65 13 70 -11z m2657 -182 l25 -105 -49 -12 c-26 -6 -50 -9 -53 -6
-5 5 -53 184 -54 199 0 6 62 25 91 27 11 1 21 -25 40 -103z m-2577 -198 c9
-46 19 -93 22 -105 6 -23 -1 -27 -67 -38 l-35 -7 -18 84 c-10 46 -20 93 -23
104 -4 18 2 23 34 32 70 18 69 19 87 -70z m2653 -113 c12 -49 23 -95 23 -102
0 -10 -98 -40 -104 -32 -3 5 -46 192 -46 201 0 10 60 27 84 25 16 -2 24 -19
43 -92z m-2579 -227 c17 -75 19 -103 11 -109 -13 -7 -90 -22 -94 -17 -6 10
-44 202 -41 206 6 5 64 20 87 21 12 1 21 -23 37 -101z m2656 -102 l24 -97 -22
-8 c-11 -5 -35 -11 -53 -14 l-31 -6 -25 102 c-14 56 -23 103 -22 105 7 8 100
28 103 22 1 -3 13 -50 26 -104z m-2585 -207 c12 -50 21 -96 21 -104 0 -12 -88
-41 -97 -31 -3 3 -14 42 -24 88 -11 46 -22 91 -25 100 -4 13 3 20 28 27 73 21
74 20 97 -80z m2656 -108 c9 -47 19 -90 22 -96 2 -8 -16 -16 -49 -23 -29 -5
-54 -9 -55 -8 -4 3 -43 186 -43 200 0 18 92 37 101 21 4 -5 15 -48 24 -94z
m-221 -216 c25 -126 64 -336 85 -466 71 -420 139 -1028 117 -1034 -11 -3
-2035 -174 -2106 -178 l-34 -2 -13 145 c-27 297 -99 730 -192 1164 -23 104
-39 191 -37 194 3 2 323 65 713 139 389 74 868 165 1063 202 195 37 356 67
357 67 0 -1 22 -104 47 -231z m-2363 8 c12 -54 24 -103 26 -109 2 -7 -12 -14
-34 -18 -21 -4 -45 -9 -55 -12 -13 -4 -20 11 -36 83 -32 136 -34 125 23 139
28 6 51 12 52 13 1 0 11 -43 24 -96z m2650 -112 c11 -56 19 -105 17 -107 -3
-2 -26 -8 -52 -13 -55 -10 -49 -19 -74 107 -14 67 -16 95 -8 98 16 6 91 21 93
19 2 -1 12 -48 24 -104z m-2580 -208 c26 -124 27 -120 -28 -131 -26 -6 -49 -9
-51 -7 -5 5 -42 176 -42 195 0 12 14 19 48 26 26 5 49 9 51 7 2 -1 12 -42 22
-90z m2624 -35 c2 -13 11 -60 18 -106 16 -92 22 -82 -60 -96 -28 -5 -33 -2
-37 17 -6 27 -27 157 -29 177 -1 8 10 17 28 21 58 13 74 10 80 -13z m-2569
-235 c4 -21 12 -68 19 -105 l13 -68 -37 -6 c-20 -3 -44 -8 -53 -11 -10 -2 -18
-3 -18 -1 0 2 -9 50 -20 108 -11 58 -20 106 -20 107 0 3 51 10 82 12 24 1 28
-4 34 -36z m2619 -85 c8 -38 26 -190 23 -193 -2 -1 -26 -6 -54 -10 l-52 -7
-12 99 c-6 54 -11 103 -11 108 0 8 33 17 88 24 7 0 15 -9 18 -21z m-2552 -300
c9 -57 13 -105 9 -109 -4 -4 -28 -9 -53 -12 l-47 -6 -12 82 c-6 45 -14 94 -17
109 -5 24 -2 27 28 31 82 10 75 17 92 -95z m2591 -25 c3 -10 8 -60 12 -110 l7
-93 -55 0 -54 0 -10 105 c-10 116 -12 112 58 114 27 1 38 -4 42 -16z m-2544
-306 c6 -55 10 -100 8 -102 -2 -2 -26 -7 -54 -10 l-51 -7 -12 103 c-6 56 -8
106 -4 110 10 9 85 16 95 9 3 -3 12 -49 18 -103z m2579 -111 l6 -104 -35 -6
c-77 -13 -77 -13 -82 136 l-3 77 50 3 c27 2 52 2 54 0 3 -1 7 -49 10 -106z
m-2555 -128 c3 -13 7 -62 10 -110 l6 -88 -54 0 -54 0 -7 88 c-4 48 -9 95 -11
104 -4 12 3 18 23 21 69 10 82 8 87 -15z m2566 -198 l0 -110 -49 0 -48 0 -7
53 c-3 28 -6 75 -6 104 0 57 4 60 73 62 l37 1 0 -110z m-2540 -220 l0 -110
-55 0 -55 0 0 110 0 110 55 0 55 0 0 -110z m2546 -77 c-3 -42 -6 -91 -6 -110
l0 -34 -52 3 c-29 2 -52 6 -50 11 1 4 2 52 2 107 l0 100 56 0 57 0 -7 -77z
m-239 -345 c-8 -350 -30 -652 -72 -983 -14 -111 -84 -547 -89 -552 -1 -1 -484
82 -1074 184 -913 159 -1071 189 -1067 202 11 37 57 299 80 456 38 265 56 470
63 725 l7 235 610 5 c336 3 821 6 1079 8 l469 2 -6 -282z m-2307 91 c0 -111 0
-111 -22 -105 -13 3 -38 6 -55 6 l-33 0 0 105 0 105 55 0 55 0 0 -111z m2536
-106 c-4 -60 -9 -109 -11 -111 -1 -2 -26 0 -55 4 l-53 7 7 60 c3 33 6 80 6
103 l0 44 56 0 57 0 -7 -107z m-2557 -112 c11 -7 12 -28 5 -112 l-9 -103 -50
3 c-27 1 -51 4 -53 6 -1 1 0 50 4 109 l7 106 41 0 c23 0 47 -4 55 -9z m2537
-114 c4 -3 2 -52 -2 -109 l-9 -102 -50 3 c-27 1 -52 4 -54 6 -1 2 0 52 4 110
l8 107 48 -4 c27 -3 52 -8 55 -11z m-2560 -281 c-4 -39 -9 -88 -13 -110 l-6
-38 -51 7 c-28 3 -52 8 -53 9 -3 3 15 156 22 191 4 17 11 20 56 16 l52 -3 -7
-72z m2530 -115 c-4 -42 -9 -91 -13 -110 l-6 -33 -51 7 c-28 3 -51 7 -52 8 -2
2 23 212 25 212 0 0 24 -2 52 -4 l52 -3 -7 -77z m-2569 -145 c4 -3 -23 -178
-32 -202 -2 -9 -17 -9 -52 -2 -26 6 -50 12 -51 13 -2 2 4 49 14 105 l18 102
49 -6 c27 -3 52 -7 54 -10z m2504 -102 l35 -6 -15 -107 c-9 -58 -19 -105 -23
-103 -5 1 -23 2 -40 2 -58 0 -61 8 -49 96 20 138 15 131 92 118z m-2563 -220
c4 -3 -37 -194 -44 -205 -5 -9 -104 12 -104 22 0 8 39 177 45 195 2 9 16 9 52
1 26 -6 50 -12 51 -13z m2543 -110 c6 -3 -16 -160 -27 -197 -5 -14 -12 -16
-42 -11 -74 12 -70 7 -57 82 7 37 16 84 19 105 l7 38 47 -7 c26 -3 50 -8 53
-10z m-2656 -200 c17 -4 33 -8 37 -11 3 -2 -2 -34 -13 -71 -11 -37 -24 -84
-29 -104 l-10 -37 -46 14 c-25 7 -48 16 -51 19 -3 3 7 51 22 106 22 81 31 100
44 96 9 -3 30 -8 46 -12z m2569 -114 c34 -1 37 -15 21 -101 -24 -127 -21 -122
-63 -114 -75 13 -71 3 -48 121 l20 106 29 -6 c16 -3 35 -6 41 -6z m-76 -321
l50 -10 -20 -87 c-25 -115 -27 -122 -41 -122 -31 0 -87 22 -87 35 0 19 41 195
45 195 2 0 26 -5 53 -11z m-65 -320 c20 -5 37 -14 37 -19 0 -20 -42 -186 -49
-193 -9 -9 -101 12 -101 23 0 8 38 168 45 188 5 15 19 15 68 1z"/>
</g>
</svg>
