<svg width="24" height="23" viewBox="0 0 24 23" fill="none" xmlns="http://www.w3.org/2000/svg">
<path d="M12.0094 5.54404C8.60223 5.54404 5.85402 8.14912 5.85402 11.3788C5.85402 14.6085 8.60223 17.2136 12.0094 17.2136C15.4165 17.2136 18.1647 14.6085 18.1647 11.3788C18.1647 8.14912 15.4165 5.54404 12.0094 5.54404ZM12.0094 15.1722C9.80759 15.1722 8.00759 13.471 8.00759 11.3788C8.00759 9.28662 9.80223 7.58545 12.0094 7.58545C14.2165 7.58545 16.0112 9.28662 16.0112 11.3788C16.0112 13.471 14.2112 15.1722 12.0094 15.1722ZM19.8522 5.30537C19.8522 6.06201 19.2094 6.66631 18.4165 6.66631C17.6183 6.66631 16.9808 6.05693 16.9808 5.30537C16.9808 4.55381 17.6237 3.94443 18.4165 3.94443C19.2094 3.94443 19.8522 4.55381 19.8522 5.30537ZM23.929 6.68662C23.8379 4.86357 23.3987 3.24873 21.9897 1.91826C20.5862 0.587793 18.8826 0.171387 16.9594 0.0799805C14.9772 -0.0266602 9.03616 -0.0266602 7.05402 0.0799805C5.13616 0.166309 3.43259 0.582715 2.02366 1.91318C0.614732 3.24365 0.180804 4.8585 0.084375 6.68154C-0.028125 8.56045 -0.028125 14.1921 0.084375 16.071C0.175446 17.894 0.614732 19.5089 2.02366 20.8394C3.43259 22.1698 5.1308 22.5862 7.05402 22.6776C9.03616 22.7843 14.9772 22.7843 16.9594 22.6776C18.8826 22.5913 20.5862 22.1749 21.9897 20.8394C23.3933 19.5089 23.8326 17.894 23.929 16.071C24.0415 14.1921 24.0415 8.56553 23.929 6.68662ZM21.3683 18.087C20.9504 19.0823 20.1415 19.8491 19.0862 20.2503C17.5058 20.8444 13.7558 20.7073 12.0094 20.7073C10.2629 20.7073 6.50759 20.8394 4.93259 20.2503C3.88259 19.8542 3.07366 19.0874 2.65045 18.087C2.02366 16.589 2.1683 13.0343 2.1683 11.3788C2.1683 9.72334 2.02902 6.16357 2.65045 4.67061C3.0683 3.67529 3.87723 2.9085 4.93259 2.50732C6.51295 1.91318 10.2629 2.05029 12.0094 2.05029C13.7558 2.05029 17.5112 1.91826 19.0862 2.50732C20.1362 2.90342 20.9451 3.67021 21.3683 4.67061C21.9951 6.16865 21.8504 9.72334 21.8504 11.3788C21.8504 13.0343 21.9951 16.594 21.3683 18.087Z" fill="url(#paint0_linear_23_829)"/>
<defs>
<linearGradient id="paint0_linear_23_829" x1="3.5" y1="21.5" x2="22.5" y2="2" gradientUnits="userSpaceOnUse">
<stop stop-color="#FFC852"/>
<stop offset="0.492923" stop-color="#F7504F"/>
<stop offset="1" stop-color="#863BC8"/>
</linearGradient>
</defs>
</svg>
