<svg width="80" height="80" viewBox="0 0 80 80" fill="none" xmlns="http://www.w3.org/2000/svg">
<g clip-path="url(#clip0_113_2)">
<path d="M40.001 80.002C62.0929 80.002 80.002 62.0929 80.002 40.001C80.002 17.909 62.0929 0 40.001 0C17.909 0 0 17.909 0 40.001C0 62.0929 17.909 80.002 40.001 80.002Z" fill="#BD0000"/>
<path d="M62.6298 62.6289C75.1269 50.1319 75.1269 29.8701 62.6298 17.373C50.1327 4.87593 29.871 4.87593 17.3739 17.373C4.8768 29.8701 4.8768 50.1319 17.3739 62.6289C29.871 75.126 50.1327 75.126 62.6298 62.6289Z" fill="white"/>
<path d="M63.2914 46.509C66.8873 33.5864 59.3265 20.1956 46.404 16.5997C33.4814 13.0038 20.0906 20.5646 16.4947 33.4871C12.8988 46.4097 20.4596 59.8005 33.3821 63.3964C46.3047 66.9923 59.6955 59.4316 63.2914 46.509Z" fill="#BD0000"/>
<path d="M54.8347 46.8583C58.568 38.5822 54.8854 28.8467 46.6093 25.1133C38.3332 21.38 28.5976 25.0627 24.8643 33.3388C21.131 41.6149 24.8136 51.3504 33.0897 55.0838C41.3658 58.8171 51.1014 55.1344 54.8347 46.8583Z" fill="#0445A3"/>
<path d="M39.763 23.9226L44.5639 33.6532L55.3011 35.2138L47.5311 42.7868L49.3668 53.481L39.763 48.4324L30.1593 53.481L31.993 42.7868L24.223 35.2138L34.9602 33.6532L39.763 23.9226Z" fill="white"/>
</g>
<defs>
<clipPath id="clip0_113_2">
<rect width="80" height="80" fill="white"/>
</clipPath>
</defs>
</svg>
