<svg width="24" height="24" viewBox="0 0 24 24" fill="none" xmlns="http://www.w3.org/2000/svg">
<path d="M20.1628 5.23423C21.1656 5.81326 22.3152 6.15263 23.5 6.22673V9.32993C21.4074 9.24933 19.3869 8.63869 17.687 7.57322L16.9214 7.09338V7.99688V16.3779C16.9214 16.378 16.9214 16.3781 16.9214 16.3781C16.9209 17.8118 16.4205 19.2186 15.4756 20.4101C14.5298 21.6029 13.1824 22.5238 11.6068 23.0394C10.0311 23.5551 8.31049 23.6379 6.67775 23.2756C5.04502 22.9133 3.58699 22.1254 2.49436 21.0268C1.40256 19.929 0.728374 18.575 0.548593 17.1489C0.368895 15.7234 0.689783 14.2798 1.47661 13.0087C2.2643 11.7363 3.48429 10.6939 4.98292 10.031C6.35036 9.4261 7.88431 9.16641 9.41072 9.27985V12.4279C8.70847 12.3297 7.98656 12.3802 7.30536 12.5792C6.41718 12.8385 5.6341 13.34 5.07487 14.0231C4.51461 14.7075 4.20893 15.5388 4.21436 16.3986C4.2198 17.2584 4.53592 18.0863 5.10444 18.7648C5.67194 19.4421 6.46093 19.9358 7.3521 20.1865C8.24322 20.4372 9.20055 20.4351 10.0903 20.1805C10.9802 19.926 11.7665 19.4288 12.3303 18.7489C12.8952 18.0677 13.2066 17.2382 13.2071 16.3785V16.3781V0.5H16.9408C16.959 0.714893 16.9899 0.928855 17.0334 1.141L17.0334 1.14101L17.0343 1.14534C17.2145 1.98647 17.5879 2.78241 18.1277 3.48522C18.6669 4.18714 19.3603 4.78119 20.1628 5.23423Z" fill="white" stroke="#1F1F1F"/>
</svg>
