<svg width="24" height="24" viewBox="0 0 24 24" fill="none" xmlns="http://www.w3.org/2000/svg">
<path d="M24 9.83906C21.6407 9.84348 19.3394 9.19907 17.4214 7.99688V16.3781C17.4209 17.9304 16.8787 19.4455 15.8674 20.7208C14.8561 21.9961 13.4239 22.9708 11.7623 23.5146C10.1007 24.0584 8.28899 24.1453 6.56943 23.7638C4.84987 23.3822 3.30445 22.5503 2.13985 21.3794C0.975258 20.2084 0.247015 18.7543 0.0525185 17.2114C-0.141978 15.6685 0.206547 14.1104 1.05148 12.7456C1.89641 11.3807 3.19747 10.2741 4.78064 9.57374C6.36382 8.8734 8.15364 8.61272 9.91072 8.82656V13.0406C9.10729 12.8193 8.24449 12.8258 7.44552 13.0591C6.64654 13.2925 5.95225 13.7407 5.46177 14.3399C4.97129 14.939 4.7097 15.6585 4.71435 16.3955C4.71901 17.1325 4.98967 17.8493 5.48769 18.4437C5.98572 19.0381 6.68563 19.4796 7.4875 19.7052C8.28938 19.9308 9.15221 19.9289 9.95279 19.6998C10.7534 19.4708 11.4508 19.0262 11.9454 18.4297C12.4401 17.8332 12.7067 17.1151 12.7071 16.3781V0H17.4214C17.4188 0.348874 17.4528 0.69722 17.5232 1.04063C17.6872 1.80609 18.0278 2.53427 18.5243 3.18065C19.0207 3.82703 19.6626 4.37804 20.4107 4.8C21.4756 5.41539 22.7238 5.74306 24 5.74219V9.83906Z" fill="white" fill-opacity="0.46"/>
</svg>
