<svg width="24" height="24" viewBox="0 0 24 24" fill="none" xmlns="http://www.w3.org/2000/svg">
<path d="M22.9042 5.81719C22.6417 4.70625 21.8708 3.83438 20.8917 3.53906C19.1167 3 12 3 12 3C12 3 4.88333 3 3.10833 3.53906C2.12917 3.83438 1.35833 4.70625 1.09583 5.81719C0.620833 7.82812 0.620833 12.0187 0.620833 12.0187C0.620833 12.0187 0.620833 16.2094 1.09583 18.2203C1.35833 19.3313 2.12917 20.1656 3.10833 20.4609C4.88333 21 12 21 12 21C12 21 19.1167 21 20.8917 20.4609C21.8708 20.1656 22.6417 19.3266 22.9042 18.2203C23.3792 16.2094 23.3792 12.0187 23.3792 12.0187C23.3792 12.0187 23.3792 7.82812 22.9042 5.81719ZM9.675 15.825V8.2125L15.6208 12.0187L9.675 15.825Z" fill="#ED1D24"/>
</svg>
