<svg width="24" height="18" viewBox="0 0 24 18" fill="none" xmlns="http://www.w3.org/2000/svg">
<path d="M22.9042 2.81719C22.6417 1.70625 21.8708 0.834375 20.8917 0.539062C19.1167 0 12 0 12 0C12 0 4.88333 0 3.10833 0.539062C2.12917 0.834375 1.35833 1.70625 1.09583 2.81719C0.620833 4.82812 0.620833 9.01875 0.620833 9.01875C0.620833 9.01875 0.620833 13.2094 1.09583 15.2203C1.35833 16.3313 2.12917 17.1656 3.10833 17.4609C4.88333 18 12 18 12 18C12 18 19.1167 18 20.8917 17.4609C21.8708 17.1656 22.6417 16.3266 22.9042 15.2203C23.3792 13.2094 23.3792 9.01875 23.3792 9.01875C23.3792 9.01875 23.3792 4.82812 22.9042 2.81719ZM9.675 12.825V5.2125L15.6208 9.01875L9.675 12.825Z" fill="white" fill-opacity="0.46"/>
</svg>
